<mxfile host="65bd71144e">
    <diagram id="hei_phfN3tXfRMJbhBx9" name="Página-1">
        <mxGraphModel dx="1554" dy="441" grid="1" gridSize="10" guides="1" tooltips="1" connect="1" arrows="1" fold="1" page="1" pageScale="1" pageWidth="827" pageHeight="1169" math="0" shadow="0">
            <root>
                <mxCell id="0"/>
                <mxCell id="1" parent="0"/>
                <mxCell id="2" value="La implementacion de SRE en un proyecto DevOps&lt;br&gt;busca reducir el trabajo manual, mejorar la resiliencia&lt;br&gt;y asegurar que los sistemas puedan responder rápidamente &lt;br&gt;a los cambios.&lt;br&gt;&lt;br&gt;Principios:&lt;br&gt;1. Automatización&lt;br&gt;2. Monitorización proactiva&lt;br&gt;3. Error Budget&lt;br&gt;4. Reducción de toil&lt;br&gt;5. Escalabilidad y fiablidad" style="text;html=1;align=center;verticalAlign=middle;resizable=0;points=[];autosize=1;strokeColor=none;fillColor=none;" vertex="1" parent="1">
                    <mxGeometry x="10" y="180" width="340" height="170" as="geometry"/>
                </mxCell>
                <mxCell id="3" value="Componentes" style="text;html=1;align=center;verticalAlign=middle;resizable=0;points=[];autosize=1;strokeColor=none;fillColor=none;" vertex="1" parent="1">
                    <mxGeometry x="620" width="100" height="30" as="geometry"/>
                </mxCell>
                <mxCell id="4" value="&lt;br&gt;" style="sketch=0;outlineConnect=0;fontColor=#232F3E;gradientColor=none;fillColor=#B0084D;strokeColor=none;dashed=0;verticalLabelPosition=bottom;verticalAlign=top;align=center;html=1;fontSize=12;fontStyle=0;aspect=fixed;pointerEvents=1;shape=mxgraph.aws4.template;" vertex="1" parent="1">
                    <mxGeometry x="610" y="194" width="43.33" height="52" as="geometry"/>
                </mxCell>
                <mxCell id="6" value="Terraform&lt;br&gt;/&lt;br&gt;Cloudformation" style="text;html=1;align=center;verticalAlign=middle;resizable=0;points=[];autosize=1;strokeColor=none;fillColor=none;" vertex="1" parent="1">
                    <mxGeometry x="653.33" y="190" width="100" height="60" as="geometry"/>
                </mxCell>
                <mxCell id="7" value="" style="dashed=0;outlineConnect=0;html=1;align=center;labelPosition=center;verticalLabelPosition=bottom;verticalAlign=top;shape=mxgraph.weblogos.github" vertex="1" parent="1">
                    <mxGeometry x="600" y="67.5" width="75" height="75" as="geometry"/>
                </mxCell>
                <mxCell id="8" value="Pipeline&lt;br&gt;CI/CD&lt;br&gt;&lt;br&gt;Github &lt;br&gt;Actions" style="text;html=1;align=center;verticalAlign=middle;resizable=0;points=[];autosize=1;strokeColor=none;fillColor=none;" vertex="1" parent="1">
                    <mxGeometry x="665" y="60" width="70" height="90" as="geometry"/>
                </mxCell>
                <mxCell id="9" value="" style="aspect=fixed;html=1;points=[];align=center;image;fontSize=12;image=img/lib/azure2/other/Grafana.svg;" vertex="1" parent="1">
                    <mxGeometry x="588.33" y="298" width="68" height="52.800000000000004" as="geometry"/>
                </mxCell>
                <mxCell id="11" value="Monitoreo&lt;br&gt;y&lt;br&gt;observabilidad&lt;br&gt;&lt;br&gt;Grafana" style="text;html=1;align=center;verticalAlign=middle;resizable=0;points=[];autosize=1;strokeColor=none;fillColor=none;" vertex="1" parent="1">
                    <mxGeometry x="653.33" y="290" width="100" height="90" as="geometry"/>
                </mxCell>
                <mxCell id="12" value="Orquestación&lt;br&gt;Swarm&lt;br&gt;/&lt;br&gt;K8s" style="text;html=1;align=center;verticalAlign=middle;resizable=0;points=[];autosize=1;strokeColor=none;fillColor=none;" vertex="1" parent="1">
                    <mxGeometry x="663" y="410" width="90" height="70" as="geometry"/>
                </mxCell>
                <mxCell id="13" value="" style="sketch=0;points=[[0,0,0],[0.25,0,0],[0.5,0,0],[0.75,0,0],[1,0,0],[0,1,0],[0.25,1,0],[0.5,1,0],[0.75,1,0],[1,1,0],[0,0.25,0],[0,0.5,0],[0,0.75,0],[1,0.25,0],[1,0.5,0],[1,0.75,0]];outlineConnect=0;fontColor=#232F3E;gradientColor=#F78E04;gradientDirection=north;fillColor=#D05C17;strokeColor=#ffffff;dashed=0;verticalLabelPosition=bottom;verticalAlign=top;align=center;html=1;fontSize=12;fontStyle=0;aspect=fixed;shape=mxgraph.aws4.resourceIcon;resIcon=mxgraph.aws4.eks;" vertex="1" parent="1">
                    <mxGeometry x="585" y="406" width="78" height="78" as="geometry"/>
                </mxCell>
                <mxCell id="14" value="Gestión de &lt;br&gt;incidentes&lt;br&gt;&lt;br&gt;Pagerduty" style="text;html=1;align=center;verticalAlign=middle;resizable=0;points=[];autosize=1;strokeColor=none;fillColor=none;" vertex="1" parent="1">
                    <mxGeometry x="675" y="506.5" width="80" height="70" as="geometry"/>
                </mxCell>
                <mxCell id="15" value="" style="outlineConnect=0;dashed=0;verticalLabelPosition=bottom;verticalAlign=top;align=center;html=1;shape=mxgraph.aws3.sns;fillColor=#D9A741;gradientColor=none;" vertex="1" parent="1">
                    <mxGeometry x="587" y="500" width="76.5" height="76.5" as="geometry"/>
                </mxCell>
            </root>
        </mxGraphModel>
    </diagram>
</mxfile>